solid OpenSCAD_Model
  facet normal -1 0 0
    outer loop
      vertex 0 25 0
      vertex 0 5 6
      vertex 0 25 6
    endloop
  endfacet
  facet normal -1 0 0
    outer loop
      vertex 0 -5 0
      vertex 0 5 6
      vertex 0 25 0
    endloop
  endfacet
  facet normal -1 0 0
    outer loop
      vertex 0 -5 33
      vertex 0 5 6
      vertex 0 -5 0
    endloop
  endfacet
  facet normal -1 0 0
    outer loop
      vertex 0 5 6
      vertex 0 -5 33
      vertex 0 5 33
    endloop
  endfacet
  facet normal 0 0 1
    outer loop
      vertex 60 25 6
      vertex 20 5 6
      vertex 60 -5 6
    endloop
  endfacet
  facet normal -0 0 1
    outer loop
      vertex 0 25 6
      vertex 20 5 6
      vertex 60 25 6
    endloop
  endfacet
  facet normal 0 0 1
    outer loop
      vertex 20 5 6
      vertex 0 25 6
      vertex 0 5 6
    endloop
  endfacet
  facet normal 0 0 1
    outer loop
      vertex 60 -5 6
      vertex 20 5 6
      vertex 20 -5 6
    endloop
  endfacet
  facet normal 1 -0 0
    outer loop
      vertex 60 -5 6
      vertex 60 25 0
      vertex 60 25 6
    endloop
  endfacet
  facet normal 1 0 0
    outer loop
      vertex 60 25 0
      vertex 60 -5 6
      vertex 60 -5 0
    endloop
  endfacet
  facet normal 0 0 -1
    outer loop
      vertex 15.9556 0.294755 0
      vertex 60 -5 0
      vertex 16 0 0
    endloop
  endfacet
  facet normal 0 0 -1
    outer loop
      vertex 60 -5 0
      vertex 15.9556 -0.294755 0
      vertex 16 0 0
    endloop
  endfacet
  facet normal 0 0 -1
    outer loop
      vertex 60 -5 0
      vertex 15.8262 -0.563319 0
      vertex 15.9556 -0.294755 0
    endloop
  endfacet
  facet normal 0 0 -1
    outer loop
      vertex 60 -5 0
      vertex 15.6235 -0.781831 0
      vertex 15.8262 -0.563319 0
    endloop
  endfacet
  facet normal 0 0 -1
    outer loop
      vertex 60 -5 0
      vertex 15.3653 -0.930873 0
      vertex 15.6235 -0.781831 0
    endloop
  endfacet
  facet normal 0 0 -1
    outer loop
      vertex 60 -5 0
      vertex 15.0747 -0.997203 0
      vertex 15.3653 -0.930873 0
    endloop
  endfacet
  facet normal 0 0 -1
    outer loop
      vertex 0 -5 0
      vertex 15.0747 -0.997203 0
      vertex 60 -5 0
    endloop
  endfacet
  facet normal 0 0 -1
    outer loop
      vertex 14.0112 -0.149042 0
      vertex 6 0 0
      vertex 14.0112 0.149042 0
    endloop
  endfacet
  facet normal 0 0 -1
    outer loop
      vertex 5.95557 -0.294755 0
      vertex 14.0112 -0.149042 0
      vertex 14.099 -0.433884 0
    endloop
  endfacet
  facet normal 0 0 -1
    outer loop
      vertex 5.82624 -0.563319 0
      vertex 14.099 -0.433884 0
      vertex 14.2669 -0.680172 0
    endloop
  endfacet
  facet normal 0 0 -1
    outer loop
      vertex 5.62349 -0.781831 0
      vertex 14.2669 -0.680172 0
      vertex 14.5 -0.866025 0
    endloop
  endfacet
  facet normal 0 0 -1
    outer loop
      vertex 5.36534 -0.930873 0
      vertex 14.5 -0.866025 0
      vertex 14.7775 -0.974928 0
    endloop
  endfacet
  facet normal -0 0 -1
    outer loop
      vertex 14.0112 -0.149042 0
      vertex 5.95557 -0.294755 0
      vertex 6 0 0
    endloop
  endfacet
  facet normal -0 0 -1
    outer loop
      vertex 15.0747 -0.997203 0
      vertex 0 -5 0
      vertex 14.7775 -0.974928 0
    endloop
  endfacet
  facet normal -0 0 -1
    outer loop
      vertex 14.099 -0.433884 0
      vertex 5.82624 -0.563319 0
      vertex 5.95557 -0.294755 0
    endloop
  endfacet
  facet normal -0 0 -1
    outer loop
      vertex 14.2669 -0.680172 0
      vertex 5.62349 -0.781831 0
      vertex 5.82624 -0.563319 0
    endloop
  endfacet
  facet normal 0 -0 -1
    outer loop
      vertex 5.36534 -0.930873 0
      vertex 14.7775 -0.974928 0
      vertex 0 -5 0
    endloop
  endfacet
  facet normal -0 0 -1
    outer loop
      vertex 14.5 -0.866025 0
      vertex 5.36534 -0.930873 0
      vertex 5.62349 -0.781831 0
    endloop
  endfacet
  facet normal -0 0 -1
    outer loop
      vertex 4.01117 -0.149042 0
      vertex 0 -5 0
      vertex 4.01117 0.149042 0
    endloop
  endfacet
  facet normal -0 0 -1
    outer loop
      vertex 4.09903 -0.433884 0
      vertex 0 -5 0
      vertex 4.01117 -0.149042 0
    endloop
  endfacet
  facet normal -0 0 -1
    outer loop
      vertex 4.26695 -0.680172 0
      vertex 0 -5 0
      vertex 4.09903 -0.433884 0
    endloop
  endfacet
  facet normal -0 0 -1
    outer loop
      vertex 4.5 -0.866025 0
      vertex 0 -5 0
      vertex 4.26695 -0.680172 0
    endloop
  endfacet
  facet normal -0 0 -1
    outer loop
      vertex 4.77748 -0.974928 0
      vertex 0 -5 0
      vertex 4.5 -0.866025 0
    endloop
  endfacet
  facet normal -0 0 -1
    outer loop
      vertex 5.07473 -0.997203 0
      vertex 0 -5 0
      vertex 4.77748 -0.974928 0
    endloop
  endfacet
  facet normal 0 0 -1
    outer loop
      vertex 5.36534 -0.930873 0
      vertex 0 -5 0
      vertex 5.07473 -0.997203 0
    endloop
  endfacet
  facet normal 0 0 -1
    outer loop
      vertex 60 -5 0
      vertex 15.9556 0.294755 0
      vertex 60 25 0
    endloop
  endfacet
  facet normal 0 0 -1
    outer loop
      vertex 15.8262 0.563319 0
      vertex 60 25 0
      vertex 15.9556 0.294755 0
    endloop
  endfacet
  facet normal 0 0 -1
    outer loop
      vertex 15.6235 0.781831 0
      vertex 60 25 0
      vertex 15.8262 0.563319 0
    endloop
  endfacet
  facet normal 0 0 -1
    outer loop
      vertex 15.3653 0.930873 0
      vertex 60 25 0
      vertex 15.6235 0.781831 0
    endloop
  endfacet
  facet normal 0 0 -1
    outer loop
      vertex 0 25 0
      vertex 15.3653 0.930873 0
      vertex 15.0747 0.997203 0
    endloop
  endfacet
  facet normal 0 0 -1
    outer loop
      vertex 0 25 0
      vertex 15.0747 0.997203 0
      vertex 14.7775 0.974928 0
    endloop
  endfacet
  facet normal 0 0 -1
    outer loop
      vertex 5.36534 0.930873 0
      vertex 14.7775 0.974928 0
      vertex 14.5 0.866025 0
    endloop
  endfacet
  facet normal 0 0 -1
    outer loop
      vertex 5.95557 0.294755 0
      vertex 14.0112 0.149042 0
      vertex 6 0 0
    endloop
  endfacet
  facet normal 0 0 -1
    outer loop
      vertex 14.0112 0.149042 0
      vertex 5.95557 0.294755 0
      vertex 14.099 0.433884 0
    endloop
  endfacet
  facet normal 0 0 -1
    outer loop
      vertex 5.82624 0.563319 0
      vertex 14.099 0.433884 0
      vertex 5.95557 0.294755 0
    endloop
  endfacet
  facet normal 0 0 -1
    outer loop
      vertex 14.099 0.433884 0
      vertex 5.82624 0.563319 0
      vertex 14.2669 0.680172 0
    endloop
  endfacet
  facet normal 0 0 -1
    outer loop
      vertex 5.62349 0.781831 0
      vertex 14.2669 0.680172 0
      vertex 5.82624 0.563319 0
    endloop
  endfacet
  facet normal 0 0 -1
    outer loop
      vertex 14.2669 0.680172 0
      vertex 5.62349 0.781831 0
      vertex 14.5 0.866025 0
    endloop
  endfacet
  facet normal 0 0 -1
    outer loop
      vertex 5.36534 0.930873 0
      vertex 14.5 0.866025 0
      vertex 5.62349 0.781831 0
    endloop
  endfacet
  facet normal -0 0 -1
    outer loop
      vertex 14.7775 0.974928 0
      vertex 5.36534 0.930873 0
      vertex 0 25 0
    endloop
  endfacet
  facet normal 0 0 -1
    outer loop
      vertex 0 25 0
      vertex 5.36534 0.930873 0
      vertex 5.07473 0.997203 0
    endloop
  endfacet
  facet normal 0 0 -1
    outer loop
      vertex 0 25 0
      vertex 5.07473 0.997203 0
      vertex 4.77748 0.974928 0
    endloop
  endfacet
  facet normal 0 0 -1
    outer loop
      vertex 0 25 0
      vertex 4.77748 0.974928 0
      vertex 4.5 0.866025 0
    endloop
  endfacet
  facet normal 0 0 -1
    outer loop
      vertex 0 -5 0
      vertex 4.09903 0.433884 0
      vertex 4.01117 0.149042 0
    endloop
  endfacet
  facet normal 0 0 -1
    outer loop
      vertex 0 25 0
      vertex 4.09903 0.433884 0
      vertex 0 -5 0
    endloop
  endfacet
  facet normal 0 0 -1
    outer loop
      vertex 15.3653 0.930873 0
      vertex 0 25 0
      vertex 60 25 0
    endloop
  endfacet
  facet normal 0 0 -1
    outer loop
      vertex 4.26695 0.680172 0
      vertex 0 25 0
      vertex 4.5 0.866025 0
    endloop
  endfacet
  facet normal 0 0 -1
    outer loop
      vertex 4.09903 0.433884 0
      vertex 0 25 0
      vertex 4.26695 0.680172 0
    endloop
  endfacet
  facet normal 0 -1 0
    outer loop
      vertex 0 -5 33
      vertex 20 -5 6
      vertex 20 -5 33
    endloop
  endfacet
  facet normal 0 -1 0
    outer loop
      vertex 0 -5 0
      vertex 20 -5 6
      vertex 0 -5 33
    endloop
  endfacet
  facet normal 0 -1 0
    outer loop
      vertex 60 -5 0
      vertex 20 -5 6
      vertex 0 -5 0
    endloop
  endfacet
  facet normal 0 -1 0
    outer loop
      vertex 20 -5 6
      vertex 60 -5 0
      vertex 60 -5 6
    endloop
  endfacet
  facet normal 0 1 -0
    outer loop
      vertex 60 25 0
      vertex 0 25 6
      vertex 60 25 6
    endloop
  endfacet
  facet normal 0 1 0
    outer loop
      vertex 0 25 6
      vertex 60 25 0
      vertex 0 25 0
    endloop
  endfacet
  facet normal 0 0 1
    outer loop
      vertex 20 5 33
      vertex 16 0 33
      vertex 20 -5 33
    endloop
  endfacet
  facet normal 0 0 1
    outer loop
      vertex 20 5 33
      vertex 15.9556 0.294755 33
      vertex 16 0 33
    endloop
  endfacet
  facet normal 0 0 1
    outer loop
      vertex 20 5 33
      vertex 15.8262 0.563319 33
      vertex 15.9556 0.294755 33
    endloop
  endfacet
  facet normal 0 0 1
    outer loop
      vertex 20 5 33
      vertex 15.6235 0.781831 33
      vertex 15.8262 0.563319 33
    endloop
  endfacet
  facet normal 0 0 1
    outer loop
      vertex 20 5 33
      vertex 15.3653 0.930873 33
      vertex 15.6235 0.781831 33
    endloop
  endfacet
  facet normal 0 0 1
    outer loop
      vertex 20 5 33
      vertex 15.0747 0.997203 33
      vertex 15.3653 0.930873 33
    endloop
  endfacet
  facet normal 0 0 1
    outer loop
      vertex 20 5 33
      vertex 14.7775 0.974928 33
      vertex 15.0747 0.997203 33
    endloop
  endfacet
  facet normal 0 0 1
    outer loop
      vertex 20 5 33
      vertex 14.5 0.866025 33
      vertex 14.7775 0.974928 33
    endloop
  endfacet
  facet normal 0 0 1
    outer loop
      vertex 14.0112 0.149042 33
      vertex 6 0 33
      vertex 14.0112 -0.149042 33
    endloop
  endfacet
  facet normal -0 0 1
    outer loop
      vertex 5.95557 0.294755 33
      vertex 14.0112 0.149042 33
      vertex 14.099 0.433884 33
    endloop
  endfacet
  facet normal -0 0 1
    outer loop
      vertex 5.82624 0.563319 33
      vertex 14.099 0.433884 33
      vertex 14.2669 0.680172 33
    endloop
  endfacet
  facet normal -0 0 1
    outer loop
      vertex 5.62349 0.781831 33
      vertex 14.2669 0.680172 33
      vertex 14.5 0.866025 33
    endloop
  endfacet
  facet normal -0 0 1
    outer loop
      vertex 5.36534 0.930873 33
      vertex 14.5 0.866025 33
      vertex 20 5 33
    endloop
  endfacet
  facet normal 0 0 1
    outer loop
      vertex 14.0112 0.149042 33
      vertex 5.95557 0.294755 33
      vertex 6 0 33
    endloop
  endfacet
  facet normal 0 0 1
    outer loop
      vertex 14.099 0.433884 33
      vertex 5.82624 0.563319 33
      vertex 5.95557 0.294755 33
    endloop
  endfacet
  facet normal 0 0 1
    outer loop
      vertex 14.2669 0.680172 33
      vertex 5.62349 0.781831 33
      vertex 5.82624 0.563319 33
    endloop
  endfacet
  facet normal 0 0 1
    outer loop
      vertex 14.5 0.866025 33
      vertex 5.36534 0.930873 33
      vertex 5.62349 0.781831 33
    endloop
  endfacet
  facet normal -0 0 1
    outer loop
      vertex 0 5 33
      vertex 5.36534 0.930873 33
      vertex 20 5 33
    endloop
  endfacet
  facet normal 0 0 1
    outer loop
      vertex 5.36534 0.930873 33
      vertex 0 5 33
      vertex 5.07473 0.997203 33
    endloop
  endfacet
  facet normal 0 0 1
    outer loop
      vertex 4.01117 0.149042 33
      vertex 0 5 33
      vertex 4.01117 -0.149042 33
    endloop
  endfacet
  facet normal 0 0 1
    outer loop
      vertex 4.09903 0.433884 33
      vertex 0 5 33
      vertex 4.01117 0.149042 33
    endloop
  endfacet
  facet normal 0 0 1
    outer loop
      vertex 4.26695 0.680172 33
      vertex 0 5 33
      vertex 4.09903 0.433884 33
    endloop
  endfacet
  facet normal 0 0 1
    outer loop
      vertex 4.5 0.866025 33
      vertex 0 5 33
      vertex 4.26695 0.680172 33
    endloop
  endfacet
  facet normal 0 0 1
    outer loop
      vertex 4.77748 0.974928 33
      vertex 0 5 33
      vertex 4.5 0.866025 33
    endloop
  endfacet
  facet normal 0 0 1
    outer loop
      vertex 5.07473 0.997203 33
      vertex 0 5 33
      vertex 4.77748 0.974928 33
    endloop
  endfacet
  facet normal -0 0 1
    outer loop
      vertex 15.9556 -0.294755 33
      vertex 20 -5 33
      vertex 16 0 33
    endloop
  endfacet
  facet normal -0 0 1
    outer loop
      vertex 15.8262 -0.563319 33
      vertex 20 -5 33
      vertex 15.9556 -0.294755 33
    endloop
  endfacet
  facet normal -0 0 1
    outer loop
      vertex 15.6235 -0.781831 33
      vertex 20 -5 33
      vertex 15.8262 -0.563319 33
    endloop
  endfacet
  facet normal -0 0 1
    outer loop
      vertex 15.3653 -0.930873 33
      vertex 20 -5 33
      vertex 15.6235 -0.781831 33
    endloop
  endfacet
  facet normal -0 0 1
    outer loop
      vertex 15.0747 -0.997203 33
      vertex 20 -5 33
      vertex 15.3653 -0.930873 33
    endloop
  endfacet
  facet normal 0 0 1
    outer loop
      vertex 14.7775 -0.974928 33
      vertex 20 -5 33
      vertex 15.0747 -0.997203 33
    endloop
  endfacet
  facet normal 0 0 1
    outer loop
      vertex 14.5 -0.866025 33
      vertex 20 -5 33
      vertex 14.7775 -0.974928 33
    endloop
  endfacet
  facet normal 0 0 1
    outer loop
      vertex 5.95557 -0.294755 33
      vertex 14.0112 -0.149042 33
      vertex 6 0 33
    endloop
  endfacet
  facet normal 0 0 1
    outer loop
      vertex 14.0112 -0.149042 33
      vertex 5.95557 -0.294755 33
      vertex 14.099 -0.433884 33
    endloop
  endfacet
  facet normal 0 0 1
    outer loop
      vertex 5.82624 -0.563319 33
      vertex 14.099 -0.433884 33
      vertex 5.95557 -0.294755 33
    endloop
  endfacet
  facet normal 0 0 1
    outer loop
      vertex 14.099 -0.433884 33
      vertex 5.82624 -0.563319 33
      vertex 14.2669 -0.680172 33
    endloop
  endfacet
  facet normal 0 0 1
    outer loop
      vertex 5.62349 -0.781831 33
      vertex 14.2669 -0.680172 33
      vertex 5.82624 -0.563319 33
    endloop
  endfacet
  facet normal 0 0 1
    outer loop
      vertex 14.2669 -0.680172 33
      vertex 5.62349 -0.781831 33
      vertex 14.5 -0.866025 33
    endloop
  endfacet
  facet normal 0 0 1
    outer loop
      vertex 5.36534 -0.930873 33
      vertex 14.5 -0.866025 33
      vertex 5.62349 -0.781831 33
    endloop
  endfacet
  facet normal 0 0 1
    outer loop
      vertex 14.5 -0.866025 33
      vertex 5.36534 -0.930873 33
      vertex 20 -5 33
    endloop
  endfacet
  facet normal 0 0 1
    outer loop
      vertex 0 -5 33
      vertex 5.36534 -0.930873 33
      vertex 5.07473 -0.997203 33
    endloop
  endfacet
  facet normal 0 0 1
    outer loop
      vertex 0 -5 33
      vertex 5.07473 -0.997203 33
      vertex 4.77748 -0.974928 33
    endloop
  endfacet
  facet normal 0 0 1
    outer loop
      vertex 0 -5 33
      vertex 4.01117 -0.149042 33
      vertex 0 5 33
    endloop
  endfacet
  facet normal 0 0 1
    outer loop
      vertex 4.01117 -0.149042 33
      vertex 0 -5 33
      vertex 4.09903 -0.433884 33
    endloop
  endfacet
  facet normal 0 0 1
    outer loop
      vertex 5.36534 -0.930873 33
      vertex 0 -5 33
      vertex 20 -5 33
    endloop
  endfacet
  facet normal 0 0 1
    outer loop
      vertex 4.5 -0.866025 33
      vertex 0 -5 33
      vertex 4.77748 -0.974928 33
    endloop
  endfacet
  facet normal 0 0 1
    outer loop
      vertex 4.26695 -0.680172 33
      vertex 0 -5 33
      vertex 4.5 -0.866025 33
    endloop
  endfacet
  facet normal 0 0 1
    outer loop
      vertex 4.09903 -0.433884 33
      vertex 0 -5 33
      vertex 4.26695 -0.680172 33
    endloop
  endfacet
  facet normal 1 -0 0
    outer loop
      vertex 20 -5 33
      vertex 20 5 6
      vertex 20 5 33
    endloop
  endfacet
  facet normal 1 0 0
    outer loop
      vertex 20 5 6
      vertex 20 -5 33
      vertex 20 -5 6
    endloop
  endfacet
  facet normal 0 1 -0
    outer loop
      vertex 20 5 6
      vertex 0 5 33
      vertex 20 5 33
    endloop
  endfacet
  facet normal 0 1 0
    outer loop
      vertex 0 5 33
      vertex 20 5 6
      vertex 0 5 6
    endloop
  endfacet
  facet normal -0.988844 -0.148953 0
    outer loop
      vertex 16 0 0
      vertex 15.9556 0.294755 33
      vertex 15.9556 0.294755 0
    endloop
  endfacet
  facet normal -0.988844 -0.148953 0
    outer loop
      vertex 15.9556 0.294755 33
      vertex 16 0 0
      vertex 16 0 33
    endloop
  endfacet
  facet normal 1 -0 0
    outer loop
      vertex 14.0112 -0.149042 33
      vertex 14.0112 0.149042 0
      vertex 14.0112 0.149042 33
    endloop
  endfacet
  facet normal 1 0 0
    outer loop
      vertex 14.0112 0.149042 0
      vertex 14.0112 -0.149042 33
      vertex 14.0112 -0.149042 0
    endloop
  endfacet
  facet normal 0.0747399 -0.997203 0
    outer loop
      vertex 14.7775 0.974928 0
      vertex 15.0747 0.997203 33
      vertex 14.7775 0.974928 33
    endloop
  endfacet
  facet normal 0.0747399 -0.997203 0
    outer loop
      vertex 15.0747 0.997203 33
      vertex 14.7775 0.974928 0
      vertex 15.0747 0.997203 0
    endloop
  endfacet
  facet normal -0.733135 -0.680083 0
    outer loop
      vertex 15.8262 0.563319 0
      vertex 15.6235 0.781831 33
      vertex 15.6235 0.781831 0
    endloop
  endfacet
  facet normal -0.733135 -0.680083 0
    outer loop
      vertex 15.6235 0.781831 33
      vertex 15.8262 0.563319 0
      vertex 15.8262 0.563319 33
    endloop
  endfacet
  facet normal -0.900882 -0.434065 0
    outer loop
      vertex 15.9556 0.294755 0
      vertex 15.8262 0.563319 33
      vertex 15.8262 0.563319 0
    endloop
  endfacet
  facet normal -0.900882 -0.434065 0
    outer loop
      vertex 15.8262 0.563319 33
      vertex 15.9556 0.294755 0
      vertex 15.9556 0.294755 33
    endloop
  endfacet
  facet normal -0.499925 -0.866069 0
    outer loop
      vertex 15.3653 0.930873 0
      vertex 15.6235 0.781831 33
      vertex 15.3653 0.930873 33
    endloop
  endfacet
  facet normal -0.499925 -0.866069 -0
    outer loop
      vertex 15.6235 0.781831 33
      vertex 15.3653 0.930873 0
      vertex 15.6235 0.781831 0
    endloop
  endfacet
  facet normal 0.826264 -0.563283 0
    outer loop
      vertex 14.099 0.433884 33
      vertex 14.2669 0.680172 0
      vertex 14.2669 0.680172 33
    endloop
  endfacet
  facet normal 0.826264 -0.563283 0
    outer loop
      vertex 14.2669 0.680172 0
      vertex 14.099 0.433884 33
      vertex 14.099 0.433884 0
    endloop
  endfacet
  facet normal 0.955631 -0.294565 0
    outer loop
      vertex 14.0112 0.149042 33
      vertex 14.099 0.433884 0
      vertex 14.099 0.433884 33
    endloop
  endfacet
  facet normal 0.955631 -0.294565 0
    outer loop
      vertex 14.099 0.433884 0
      vertex 14.0112 0.149042 33
      vertex 14.0112 0.149042 0
    endloop
  endfacet
  facet normal 0.623412 -0.781894 0
    outer loop
      vertex 14.2669 0.680172 0
      vertex 14.5 0.866025 33
      vertex 14.2669 0.680172 33
    endloop
  endfacet
  facet normal 0.623412 -0.781894 0
    outer loop
      vertex 14.5 0.866025 33
      vertex 14.2669 0.680172 0
      vertex 14.5 0.866025 0
    endloop
  endfacet
  facet normal 0.365319 0.930883 -0
    outer loop
      vertex 14.7775 -0.974928 0
      vertex 14.5 -0.866025 33
      vertex 14.7775 -0.974928 33
    endloop
  endfacet
  facet normal 0.365319 0.930883 0
    outer loop
      vertex 14.5 -0.866025 33
      vertex 14.7775 -0.974928 0
      vertex 14.5 -0.866025 0
    endloop
  endfacet
  facet normal 0.955631 0.294565 0
    outer loop
      vertex 14.099 -0.433884 33
      vertex 14.0112 -0.149042 0
      vertex 14.0112 -0.149042 33
    endloop
  endfacet
  facet normal 0.955631 0.294565 0
    outer loop
      vertex 14.0112 -0.149042 0
      vertex 14.099 -0.433884 33
      vertex 14.099 -0.433884 0
    endloop
  endfacet
  facet normal -0.222529 -0.974926 0
    outer loop
      vertex 15.0747 0.997203 0
      vertex 15.3653 0.930873 33
      vertex 15.0747 0.997203 33
    endloop
  endfacet
  facet normal -0.222529 -0.974926 -0
    outer loop
      vertex 15.3653 0.930873 33
      vertex 15.0747 0.997203 0
      vertex 15.3653 0.930873 0
    endloop
  endfacet
  facet normal 0.365319 -0.930883 0
    outer loop
      vertex 14.5 0.866025 0
      vertex 14.7775 0.974928 33
      vertex 14.5 0.866025 33
    endloop
  endfacet
  facet normal 0.365319 -0.930883 0
    outer loop
      vertex 14.7775 0.974928 33
      vertex 14.5 0.866025 0
      vertex 14.7775 0.974928 0
    endloop
  endfacet
  facet normal -0.733135 0.680083 0
    outer loop
      vertex 15.6235 -0.781831 0
      vertex 15.8262 -0.563319 33
      vertex 15.8262 -0.563319 0
    endloop
  endfacet
  facet normal -0.733135 0.680083 0
    outer loop
      vertex 15.8262 -0.563319 33
      vertex 15.6235 -0.781831 0
      vertex 15.6235 -0.781831 33
    endloop
  endfacet
  facet normal -0.222529 0.974926 0
    outer loop
      vertex 15.3653 -0.930873 0
      vertex 15.0747 -0.997203 33
      vertex 15.3653 -0.930873 33
    endloop
  endfacet
  facet normal -0.222529 0.974926 0
    outer loop
      vertex 15.0747 -0.997203 33
      vertex 15.3653 -0.930873 0
      vertex 15.0747 -0.997203 0
    endloop
  endfacet
  facet normal 0.0747399 0.997203 -0
    outer loop
      vertex 15.0747 -0.997203 0
      vertex 14.7775 -0.974928 33
      vertex 15.0747 -0.997203 33
    endloop
  endfacet
  facet normal 0.0747399 0.997203 0
    outer loop
      vertex 14.7775 -0.974928 33
      vertex 15.0747 -0.997203 0
      vertex 14.7775 -0.974928 0
    endloop
  endfacet
  facet normal 0.826264 0.563283 0
    outer loop
      vertex 14.2669 -0.680172 33
      vertex 14.099 -0.433884 0
      vertex 14.099 -0.433884 33
    endloop
  endfacet
  facet normal 0.826264 0.563283 0
    outer loop
      vertex 14.099 -0.433884 0
      vertex 14.2669 -0.680172 33
      vertex 14.2669 -0.680172 0
    endloop
  endfacet
  facet normal -0.900882 0.434065 0
    outer loop
      vertex 15.8262 -0.563319 0
      vertex 15.9556 -0.294755 33
      vertex 15.9556 -0.294755 0
    endloop
  endfacet
  facet normal -0.900882 0.434065 0
    outer loop
      vertex 15.9556 -0.294755 33
      vertex 15.8262 -0.563319 0
      vertex 15.8262 -0.563319 33
    endloop
  endfacet
  facet normal -0.499925 0.866069 0
    outer loop
      vertex 15.6235 -0.781831 0
      vertex 15.3653 -0.930873 33
      vertex 15.6235 -0.781831 33
    endloop
  endfacet
  facet normal -0.499925 0.866069 0
    outer loop
      vertex 15.3653 -0.930873 33
      vertex 15.6235 -0.781831 0
      vertex 15.3653 -0.930873 0
    endloop
  endfacet
  facet normal 0.623412 0.781894 -0
    outer loop
      vertex 14.5 -0.866025 0
      vertex 14.2669 -0.680172 33
      vertex 14.5 -0.866025 33
    endloop
  endfacet
  facet normal 0.623412 0.781894 0
    outer loop
      vertex 14.2669 -0.680172 33
      vertex 14.5 -0.866025 0
      vertex 14.2669 -0.680172 0
    endloop
  endfacet
  facet normal -0.988844 0.148953 0
    outer loop
      vertex 15.9556 -0.294755 0
      vertex 16 0 33
      vertex 16 0 0
    endloop
  endfacet
  facet normal -0.988844 0.148953 0
    outer loop
      vertex 16 0 33
      vertex 15.9556 -0.294755 0
      vertex 15.9556 -0.294755 33
    endloop
  endfacet
  facet normal -0.988829 -0.149052 0
    outer loop
      vertex 6 0 0
      vertex 5.95557 0.294755 33
      vertex 5.95557 0.294755 0
    endloop
  endfacet
  facet normal -0.988829 -0.149052 0
    outer loop
      vertex 5.95557 0.294755 33
      vertex 6 0 0
      vertex 6 0 33
    endloop
  endfacet
  facet normal 1 -0 0
    outer loop
      vertex 4.01117 -0.149042 33
      vertex 4.01117 0.149042 0
      vertex 4.01117 0.149042 33
    endloop
  endfacet
  facet normal 1 0 0
    outer loop
      vertex 4.01117 0.149042 0
      vertex 4.01117 -0.149042 33
      vertex 4.01117 -0.149042 0
    endloop
  endfacet
  facet normal 0.0747274 -0.997204 0
    outer loop
      vertex 4.77748 0.974928 0
      vertex 5.07473 0.997203 33
      vertex 4.77748 0.974928 33
    endloop
  endfacet
  facet normal 0.0747274 -0.997204 0
    outer loop
      vertex 5.07473 0.997203 33
      vertex 4.77748 0.974928 0
      vertex 5.07473 0.997203 0
    endloop
  endfacet
  facet normal -0.733051 -0.680174 0
    outer loop
      vertex 5.82624 0.563319 0
      vertex 5.62349 0.781831 33
      vertex 5.62349 0.781831 0
    endloop
  endfacet
  facet normal -0.733051 -0.680174 0
    outer loop
      vertex 5.62349 0.781831 33
      vertex 5.82624 0.563319 0
      vertex 5.82624 0.563319 33
    endloop
  endfacet
  facet normal -0.900974 -0.433874 0
    outer loop
      vertex 5.95557 0.294755 0
      vertex 5.82624 0.563319 33
      vertex 5.82624 0.563319 0
    endloop
  endfacet
  facet normal -0.900974 -0.433874 0
    outer loop
      vertex 5.82624 0.563319 33
      vertex 5.95557 0.294755 0
      vertex 5.95557 0.294755 33
    endloop
  endfacet
  facet normal -0.499998 -0.866027 0
    outer loop
      vertex 5.36534 0.930873 0
      vertex 5.62349 0.781831 33
      vertex 5.36534 0.930873 33
    endloop
  endfacet
  facet normal -0.499998 -0.866027 -0
    outer loop
      vertex 5.62349 0.781831 33
      vertex 5.36534 0.930873 0
      vertex 5.62349 0.781831 0
    endloop
  endfacet
  facet normal 0.826233 -0.563328 0
    outer loop
      vertex 4.09903 0.433884 33
      vertex 4.26695 0.680172 0
      vertex 4.26695 0.680172 33
    endloop
  endfacet
  facet normal 0.826233 -0.563328 0
    outer loop
      vertex 4.26695 0.680172 0
      vertex 4.09903 0.433884 33
      vertex 4.09903 0.433884 0
    endloop
  endfacet
  facet normal 0.955575 -0.294749 0
    outer loop
      vertex 4.01117 0.149042 33
      vertex 4.09903 0.433884 0
      vertex 4.09903 0.433884 33
    endloop
  endfacet
  facet normal 0.955575 -0.294749 0
    outer loop
      vertex 4.09903 0.433884 0
      vertex 4.01117 0.149042 33
      vertex 4.01117 0.149042 0
    endloop
  endfacet
  facet normal 0.623494 -0.781828 0
    outer loop
      vertex 4.26695 0.680172 0
      vertex 4.5 0.866025 33
      vertex 4.26695 0.680172 33
    endloop
  endfacet
  facet normal 0.623494 -0.781828 0
    outer loop
      vertex 4.5 0.866025 33
      vertex 4.26695 0.680172 0
      vertex 4.5 0.866025 0
    endloop
  endfacet
  facet normal 0.365341 0.930874 -0
    outer loop
      vertex 4.77748 -0.974928 0
      vertex 4.5 -0.866025 33
      vertex 4.77748 -0.974928 33
    endloop
  endfacet
  facet normal 0.365341 0.930874 0
    outer loop
      vertex 4.5 -0.866025 33
      vertex 4.77748 -0.974928 0
      vertex 4.5 -0.866025 0
    endloop
  endfacet
  facet normal 0.955575 0.294749 0
    outer loop
      vertex 4.09903 -0.433884 33
      vertex 4.01117 -0.149042 0
      vertex 4.01117 -0.149042 33
    endloop
  endfacet
  facet normal 0.955575 0.294749 0
    outer loop
      vertex 4.01117 -0.149042 0
      vertex 4.09903 -0.433884 33
      vertex 4.09903 -0.433884 0
    endloop
  endfacet
  facet normal -0.222521 -0.974928 0
    outer loop
      vertex 5.07473 0.997203 0
      vertex 5.36534 0.930873 33
      vertex 5.07473 0.997203 33
    endloop
  endfacet
  facet normal -0.222521 -0.974928 -0
    outer loop
      vertex 5.36534 0.930873 33
      vertex 5.07473 0.997203 0
      vertex 5.36534 0.930873 0
    endloop
  endfacet
  facet normal 0.365341 -0.930874 0
    outer loop
      vertex 4.5 0.866025 0
      vertex 4.77748 0.974928 33
      vertex 4.5 0.866025 33
    endloop
  endfacet
  facet normal 0.365341 -0.930874 0
    outer loop
      vertex 4.77748 0.974928 33
      vertex 4.5 0.866025 0
      vertex 4.77748 0.974928 0
    endloop
  endfacet
  facet normal -0.988829 0.149052 0
    outer loop
      vertex 5.95557 -0.294755 0
      vertex 6 0 33
      vertex 6 0 0
    endloop
  endfacet
  facet normal -0.988829 0.149052 0
    outer loop
      vertex 6 0 33
      vertex 5.95557 -0.294755 0
      vertex 5.95557 -0.294755 33
    endloop
  endfacet
  facet normal -0.733051 0.680174 0
    outer loop
      vertex 5.62349 -0.781831 0
      vertex 5.82624 -0.563319 33
      vertex 5.82624 -0.563319 0
    endloop
  endfacet
  facet normal -0.733051 0.680174 0
    outer loop
      vertex 5.82624 -0.563319 33
      vertex 5.62349 -0.781831 0
      vertex 5.62349 -0.781831 33
    endloop
  endfacet
  facet normal -0.222521 0.974928 0
    outer loop
      vertex 5.36534 -0.930873 0
      vertex 5.07473 -0.997203 33
      vertex 5.36534 -0.930873 33
    endloop
  endfacet
  facet normal -0.222521 0.974928 0
    outer loop
      vertex 5.07473 -0.997203 33
      vertex 5.36534 -0.930873 0
      vertex 5.07473 -0.997203 0
    endloop
  endfacet
  facet normal 0.0747274 0.997204 -0
    outer loop
      vertex 5.07473 -0.997203 0
      vertex 4.77748 -0.974928 33
      vertex 5.07473 -0.997203 33
    endloop
  endfacet
  facet normal 0.0747274 0.997204 0
    outer loop
      vertex 4.77748 -0.974928 33
      vertex 5.07473 -0.997203 0
      vertex 4.77748 -0.974928 0
    endloop
  endfacet
  facet normal 0.826233 0.563328 0
    outer loop
      vertex 4.26695 -0.680172 33
      vertex 4.09903 -0.433884 0
      vertex 4.09903 -0.433884 33
    endloop
  endfacet
  facet normal 0.826233 0.563328 0
    outer loop
      vertex 4.09903 -0.433884 0
      vertex 4.26695 -0.680172 33
      vertex 4.26695 -0.680172 0
    endloop
  endfacet
  facet normal -0.900974 0.433874 0
    outer loop
      vertex 5.82624 -0.563319 0
      vertex 5.95557 -0.294755 33
      vertex 5.95557 -0.294755 0
    endloop
  endfacet
  facet normal -0.900974 0.433874 0
    outer loop
      vertex 5.95557 -0.294755 33
      vertex 5.82624 -0.563319 0
      vertex 5.82624 -0.563319 33
    endloop
  endfacet
  facet normal -0.499998 0.866027 0
    outer loop
      vertex 5.62349 -0.781831 0
      vertex 5.36534 -0.930873 33
      vertex 5.62349 -0.781831 33
    endloop
  endfacet
  facet normal -0.499998 0.866027 0
    outer loop
      vertex 5.36534 -0.930873 33
      vertex 5.62349 -0.781831 0
      vertex 5.36534 -0.930873 0
    endloop
  endfacet
  facet normal 0.623494 0.781828 -0
    outer loop
      vertex 4.5 -0.866025 0
      vertex 4.26695 -0.680172 33
      vertex 4.5 -0.866025 33
    endloop
  endfacet
  facet normal 0.623494 0.781828 0
    outer loop
      vertex 4.26695 -0.680172 33
      vertex 4.5 -0.866025 0
      vertex 4.26695 -0.680172 0
    endloop
  endfacet
endsolid OpenSCAD_Model
